<svg viewBox="0 0 1050 430" xmlns="http://www.w3.org/2000/svg">
        <defs>
          <marker id="arr2" markerWidth="10" markerHeight="10" refX="8" refY="3" orient="auto">
            <path d="M0,0 L0,6 L9,3 z" fill="#1f6feb"/>
          </marker>
        </defs>
        <rect width="1050" height="430" fill="#f8fbff"/>
        <text x="35" y="42" font-family="Arial" font-size="24" font-weight="700" fill="#102039">Topologia distribuída e fluxo de dados</text>
        <g font-family="Arial" fill="#102039">
          <rect x="50" y="95" width="180" height="92" rx="7" fill="#dbeafe" stroke="#2563eb"/>
          <text x="94" y="128" font-size="17" font-weight="700">Simulador C++</text>
          <text x="82" y="154" font-size="13">1.000 salas virtuais</text>
          <text x="82" y="174" font-size="13">sensores + automação</text>

          <rect x="310" y="95" width="180" height="92" rx="7" fill="#dcfce7" stroke="#16a34a"/>
          <text x="358" y="128" font-size="17" font-weight="700">Mosquitto</text>
          <text x="342" y="154" font-size="13">MQTT 1883</text>
          <text x="342" y="174" font-size="13">WebSocket 9001</text>

          <rect x="570" y="70" width="180" height="82" rx="7" fill="#fef3c7" stroke="#d97706"/>
          <text x="623" y="103" font-size="17" font-weight="700">Painel Web</text>
          <text x="608" y="128" font-size="13">Nginx + MQTT WS</text>

          <rect x="570" y="190" width="180" height="82" rx="7" fill="#f3e8ff" stroke="#7c3aed"/>
          <text x="622" y="223" font-size="17" font-weight="700">Node-RED</text>
          <text x="607" y="248" font-size="13">fluxos de automação</text>

          <rect x="570" y="310" width="180" height="82" rx="7" fill="#e0f2fe" stroke="#0284c7"/>
          <text x="617" y="343" font-size="17" font-weight="700">Bridge C++</text>
          <text x="604" y="368" font-size="13">fila + workers HTTP</text>

          <rect x="840" y="220" width="170" height="115" rx="7" fill="#fff7ed" stroke="#ea580c"/>
          <text x="879" y="254" font-size="17" font-weight="700">InterSCity</text>
          <text x="877" y="281" font-size="13">Cataloguer</text>
          <text x="877" y="303" font-size="13">Adaptor</text>
          <text x="877" y="325" font-size="13">Collector</text>
        </g>
        <line x1="230" y1="141" x2="304" y2="141" stroke="#1f6feb" stroke-width="3" marker-end="url(#arr2)"/>
        <line x1="490" y1="132" x2="565" y2="111" stroke="#1f6feb" stroke-width="3" marker-end="url(#arr2)"/>
        <line x1="490" y1="152" x2="565" y2="225" stroke="#1f6feb" stroke-width="3" marker-end="url(#arr2)"/>
        <line x1="490" y1="168" x2="565" y2="348" stroke="#1f6feb" stroke-width="3" marker-end="url(#arr2)"/>
        <line x1="750" y1="351" x2="835" y2="280" stroke="#1f6feb" stroke-width="3" marker-end="url(#arr2)"/>
        <text x="252" y="125" font-family="Arial" font-size="12" fill="#51627a">ac-iot/+/sensores</text>
        <text x="765" y="326" font-family="Arial" font-size="12" fill="#51627a">HTTPS REST</text>
      </svg>