<svg viewBox="0 0 980 360" xmlns="http://www.w3.org/2000/svg">
        <defs>
          <marker id="arr3" markerWidth="10" markerHeight="10" refX="8" refY="3" orient="auto">
            <path d="M0,0 L0,6 L9,3 z" fill="#7c3aed"/>
          </marker>
        </defs>
        <rect width="980" height="360" fill="#f8fbff"/>
        <text x="35" y="42" font-family="Arial" font-size="24" font-weight="700" fill="#102039">Caminho da telemetria até o InterSCity</text>
        <g font-family="Arial" fill="#102039">
          <rect x="55" y="115" width="155" height="86" rx="6" fill="#dbeafe" stroke="#2563eb"/>
          <text x="95" y="150" font-size="16" font-weight="700">MQTT</text>
          <text x="78" y="175" font-size="12">ac-iot/+/sensores</text>
          <rect x="270" y="115" width="170" height="86" rx="6" fill="#ede9fe" stroke="#7c3aed"/>
          <text x="312" y="150" font-size="16" font-weight="700">Bridge C++</text>
          <text x="305" y="175" font-size="12">filtra, coalesce, limita RPS</text>
          <rect x="520" y="65" width="170" height="70" rx="6" fill="#fef3c7" stroke="#d97706"/>
          <text x="575" y="96" font-size="16" font-weight="700">Catalog</text>
          <text x="555" y="118" font-size="12">capabilities/resources</text>
          <rect x="520" y="155" width="170" height="70" rx="6" fill="#dcfce7" stroke="#16a34a"/>
          <text x="575" y="186" font-size="16" font-weight="700">Adaptor</text>
          <text x="565" y="208" font-size="12">POST telemetria</text>
          <rect x="520" y="245" width="170" height="70" rx="6" fill="#e0f2fe" stroke="#0284c7"/>
          <text x="574" y="276" font-size="16" font-weight="700">Collector</text>
          <text x="555" y="298" font-size="12">GET data/last</text>
          <rect x="765" y="155" width="160" height="70" rx="6" fill="#fff" stroke="#64748b"/>
          <text x="807" y="186" font-size="16" font-weight="700">Dashboard</text>
          <text x="800" y="208" font-size="12">estado IC e consulta</text>
        </g>
        <line x1="210" y1="158" x2="265" y2="158" stroke="#7c3aed" stroke-width="3" marker-end="url(#arr3)"/>
        <line x1="440" y1="148" x2="515" y2="100" stroke="#7c3aed" stroke-width="3" marker-end="url(#arr3)"/>
        <line x1="440" y1="165" x2="515" y2="190" stroke="#7c3aed" stroke-width="3" marker-end="url(#arr3)"/>
        <line x1="690" y1="280" x2="760" y2="195" stroke="#7c3aed" stroke-width="3" marker-end="url(#arr3)"/>
      </svg>